# xmcd
#
# Track frame offsets:
#   150
#   14174
#   25607
#   40293
#   54856
#   69903
#   82766
#   100563
#   114664
#   128642
#   144096
#   159967
#   183259
#   198022
#
# Disc length: 2845 seconds
#
# Revision: 0
# Processed by: cddbd v1.4PL0 Copyright (c) Steve Scherf et al.
# Submitted via: uFREEDB 1.6.0
#
DISCID=9c0b1b0e
DTITLE=Diversos - Modas de Viola Vol. II
DYEAR=2000
DGENRE=Country
TTITLE0=Cheiro de Selva
TTITLE1=Assina com X
TTITLE2=Laço de Saudade
TTITLE3=Mão de Noite
TTITLE4=As águias de São Francisco
TTITLE5=As Andorinhas
TTITLE6=Mãe Amorosa
TTITLE7=A noite do noso amor
TTITLE8=De longa também se ama
TTITLE9=Caboclo na cidade
TTITLE10=Dor esquisita
TTITLE11=Riozinho
TTITLE12=Paineira velha
TTITLE13=As paredes azuis
EXTD=
EXTT0=
EXTT1=
EXTT2=
EXTT3=
EXTT4=
EXTT5=
EXTT6=
EXTT7=
EXTT8=
EXTT9=
EXTT10=
EXTT11=
EXTT12=
EXTT13=
PLAYORDER=
